<?xml version="1.0" encoding="UTF-8" standalone="no"?>
<!DOCTYPE svg PUBLIC "-//W3C//DTD SVG 1.1//EN"
 "http://www.w3.org/Graphics/SVG/1.1/DTD/svg11.dtd">
<!-- Generated by graphviz version 2.38.0 (20140413.2041)
 -->
<!-- Title: G Pages: 1 -->
<svg width="480pt" height="1076pt"
 viewBox="0.00 0.00 479.79 1076.44" xmlns="http://www.w3.org/2000/svg" xmlns:xlink="http://www.w3.org/1999/xlink">
<g id="graph0" class="graph" transform="scale(1 1) rotate(0) translate(4 1072.44)">
<title>G</title>
<polygon fill="white" stroke="none" points="-4,4 -4,-1072.44 475.794,-1072.44 475.794,4 -4,4"/>
<text text-anchor="middle" x="235.897" y="-7.8" font-family="Times,serif" font-size="14.00">Application porting, testing, integration and deployment workflow</text>
<!-- BuildScript -->
<g id="node1" class="node"><title>BuildScript</title>
<g id="a_node1"><a xlink:href="docs/Build.md" xlink:title="Create \n Build Script">
<ellipse fill="none" stroke="black" cx="263.347" cy="-1041.57" rx="60.623" ry="26.7407"/>
<text text-anchor="middle" x="263.347" y="-1045.37" font-family="Times,serif" font-size="14.00">Create </text>
<text text-anchor="middle" x="263.347" y="-1030.37" font-family="Times,serif" font-size="14.00"> Build Script</text>
</a>
</g>
</g>
<!-- PullRequest -->
<g id="node2" class="node"><title>PullRequest</title>
<g id="a_node2"><a xlink:href="docs/PullRequest.md" xlink:title="Pull Request">
<ellipse fill="none" stroke="black" cx="263.347" cy="-959.701" rx="55.7903" ry="18"/>
<text text-anchor="middle" x="263.347" y="-956.001" font-family="Times,serif" font-size="14.00">Pull Request</text>
</a>
</g>
</g>
<!-- BuildScript&#45;&gt;PullRequest -->
<g id="edge1" class="edge"><title>BuildScript&#45;&gt;PullRequest</title>
<path fill="none" stroke="black" d="M263.347,-1014.42C263.347,-1005.97 263.347,-996.591 263.347,-988.061"/>
<polygon fill="black" stroke="black" points="266.847,-987.847 263.347,-977.847 259.847,-987.847 266.847,-987.847"/>
</g>
<!-- CreateJenkinsJob -->
<g id="node3" class="node"><title>CreateJenkinsJob</title>
<g id="a_node3"><a xlink:href="docs/JenkinsJob.md" xlink:title="Create Jenkins\n &#160;Job">
<ellipse fill="none" stroke="black" cx="159.347" cy="-877.831" rx="67.7647" ry="26.7407"/>
<text text-anchor="middle" x="159.347" y="-881.631" font-family="Times,serif" font-size="14.00">Create Jenkins</text>
<text text-anchor="middle" x="159.347" y="-866.631" font-family="Times,serif" font-size="14.00"> &#160;Job</text>
</a>
</g>
</g>
<!-- PullRequest&#45;&gt;CreateJenkinsJob -->
<g id="edge2" class="edge"><title>PullRequest&#45;&gt;CreateJenkinsJob</title>
<path fill="none" stroke="black" d="M242.8,-942.921C230.013,-933.101 213.162,-920.16 197.952,-908.479"/>
<polygon fill="black" stroke="black" points="199.77,-905.462 189.707,-902.147 195.507,-911.014 199.77,-905.462"/>
</g>
<!-- Build -->
<g id="node4" class="node"><title>Build</title>
<g id="a_node4"><a xlink:href="docs/Build.md" xlink:title="Build">
<ellipse fill="none" stroke="blue" cx="218.347" cy="-766.96" rx="30.5947" ry="18"/>
<text text-anchor="middle" x="218.347" y="-763.26" font-family="Times,serif" font-size="14.00">Build</text>
</a>
</g>
</g>
<!-- PullRequest&#45;&gt;Build -->
<g id="edge3" class="edge"><title>PullRequest&#45;&gt;Build</title>
<path fill="none" stroke="blue" d="M259.274,-941.437C251.409,-908.101 234.081,-834.654 224.692,-794.858"/>
<polygon fill="blue" stroke="blue" points="228.081,-793.976 222.378,-785.047 221.268,-795.584 228.081,-793.976"/>
<text text-anchor="middle" x="281.847" y="-874.131" font-family="Times,serif" font-size="14.00">if first time</text>
</g>
<!-- InvokeTest -->
<g id="node7" class="node"><title>InvokeTest</title>
<g id="a_node7"><a xlink:href="docs/InvokeTest.md" xlink:title="Invoke Test">
<ellipse fill="none" stroke="blue" cx="254.347" cy="-679.96" rx="52.7911" ry="18"/>
<text text-anchor="middle" x="254.347" y="-676.26" font-family="Times,serif" font-size="14.00">Invoke Test</text>
</a>
</g>
</g>
<!-- PullRequest&#45;&gt;InvokeTest -->
<g id="edge4" class="edge"><title>PullRequest&#45;&gt;InvokeTest</title>
<path fill="none" stroke="blue" d="M286.034,-943.008C297.773,-933.457 310.954,-920.134 317.347,-904.701 330.381,-873.232 342.568,-763.855 314.347,-715.96 310.3,-709.093 304.344,-703.439 297.734,-698.829"/>
<polygon fill="blue" stroke="blue" points="299.459,-695.782 289.105,-693.536 295.799,-701.749 299.459,-695.782"/>
<text text-anchor="middle" x="363.347" y="-821.76" font-family="Times,serif" font-size="14.00">if build </text>
<text text-anchor="middle" x="363.347" y="-806.76" font-family="Times,serif" font-size="14.00"> has passed</text>
</g>
<!-- CreateJenkinsJob&#45;&gt;Build -->
<g id="edge5" class="edge"><title>CreateJenkinsJob&#45;&gt;Build</title>
<path fill="none" stroke="blue" d="M173.18,-851.305C182.663,-833.806 195.19,-810.691 204.645,-793.243"/>
<polygon fill="blue" stroke="blue" points="207.856,-794.665 209.543,-784.205 201.701,-791.33 207.856,-794.665"/>
</g>
<!-- FailBuild -->
<g id="node5" class="node"><title>FailBuild</title>
<g id="a_node5"><a xlink:href="docs/FailBuild.md" xlink:title="Fail Build">
<ellipse fill="none" stroke="blue" cx="137.347" cy="-679.96" rx="46.2923" ry="18"/>
<text text-anchor="middle" x="137.347" y="-676.26" font-family="Times,serif" font-size="14.00">Fail Build</text>
</a>
</g>
</g>
<!-- Build&#45;&gt;FailBuild -->
<g id="edge7" class="edge"><title>Build&#45;&gt;FailBuild</title>
<path fill="none" stroke="blue" d="M197.421,-753.575C188.171,-747.485 177.557,-739.599 169.347,-730.96 162.465,-723.719 156.206,-714.792 151.086,-706.495"/>
<polygon fill="blue" stroke="blue" points="154.087,-704.694 146.001,-697.848 148.053,-708.242 154.087,-704.694"/>
<text text-anchor="middle" x="199.847" y="-719.76" font-family="Times,serif" font-size="14.00">Build Fails</text>
</g>
<!-- Build&#45;&gt;InvokeTest -->
<g id="edge6" class="edge"><title>Build&#45;&gt;InvokeTest</title>
<path fill="none" stroke="blue" d="M225.459,-749.167C230.505,-737.254 237.379,-721.024 243.155,-707.385"/>
<polygon fill="blue" stroke="blue" points="246.449,-708.583 247.126,-698.01 240.003,-705.853 246.449,-708.583"/>
<text text-anchor="middle" x="275.347" y="-719.76" font-family="Times,serif" font-size="14.00">Build Passes</text>
</g>
<!-- UserContactBuild -->
<g id="node6" class="node"><title>UserContactBuild</title>
<g id="a_node6"><a xlink:href="docs/UserBuildFollowup.md" xlink:title="Follow up \n with the user">
<ellipse fill="none" stroke="black" cx="64.3467" cy="-584.09" rx="64.1938" ry="26.7407"/>
<text text-anchor="middle" x="64.3467" y="-587.89" font-family="Times,serif" font-size="14.00">Follow up </text>
<text text-anchor="middle" x="64.3467" y="-572.89" font-family="Times,serif" font-size="14.00"> with the user</text>
</a>
</g>
</g>
<!-- FailBuild&#45;&gt;UserContactBuild -->
<g id="edge8" class="edge"><title>FailBuild&#45;&gt;UserContactBuild</title>
<path fill="none" stroke="black" d="M124.631,-662.61C115.118,-650.377 101.788,-633.235 90.0802,-618.181"/>
<polygon fill="black" stroke="black" points="92.6794,-615.822 83.7776,-610.076 87.1536,-620.119 92.6794,-615.822"/>
</g>
<!-- UserContactBuild&#45;&gt;PullRequest -->
<g id="edge9" class="edge"><title>UserContactBuild&#45;&gt;PullRequest</title>
<path fill="none" stroke="black" d="M63.9226,-610.988C63.6501,-629.838 63.3467,-655.981 63.3467,-678.96 63.3467,-878.831 63.3467,-878.831 63.3467,-878.831 63.3467,-937.645 138.862,-954.337 197.089,-958.465"/>
<polygon fill="black" stroke="black" points="197.179,-961.977 207.37,-959.079 197.596,-954.989 197.179,-961.977"/>
</g>
<!-- FailTest -->
<g id="node8" class="node"><title>FailTest</title>
<g id="a_node8"><a xlink:href="docs/FailTest.md" xlink:title="Fail Test">
<ellipse fill="none" stroke="black" cx="375.347" cy="-584.09" rx="42.4939" ry="18"/>
<text text-anchor="middle" x="375.347" y="-580.39" font-family="Times,serif" font-size="14.00">Fail Test</text>
</a>
</g>
</g>
<!-- InvokeTest&#45;&gt;FailTest -->
<g id="edge11" class="edge"><title>InvokeTest&#45;&gt;FailTest</title>
<path fill="none" stroke="blue" d="M282.109,-664.601C292.569,-658.725 304.346,-651.529 314.347,-643.96 328.268,-633.424 342.386,-620.012 353.528,-608.652"/>
<polygon fill="blue" stroke="blue" points="356.313,-610.806 360.728,-601.175 351.271,-605.95 356.313,-610.806"/>
<text text-anchor="middle" x="359.347" y="-632.76" font-family="Times,serif" font-size="14.00">Tests Fail</text>
</g>
<!-- InvokeArtifact -->
<g id="node10" class="node"><title>InvokeArtifact</title>
<g id="a_node10"><a xlink:href="docs/InvokeArtifact.md" xlink:title="Invoke Artifact">
<ellipse fill="none" stroke="black" cx="250.347" cy="-584.09" rx="64.9885" ry="18"/>
<text text-anchor="middle" x="250.347" y="-580.39" font-family="Times,serif" font-size="14.00">Invoke Artifact</text>
</a>
</g>
</g>
<!-- InvokeTest&#45;&gt;InvokeArtifact -->
<g id="edge10" class="edge"><title>InvokeTest&#45;&gt;InvokeArtifact</title>
<path fill="none" stroke="black" d="M253.613,-661.743C253.027,-647.982 252.194,-628.43 251.515,-612.518"/>
<polygon fill="black" stroke="black" points="254.998,-612.04 251.076,-602.198 248.005,-612.338 254.998,-612.04"/>
<text text-anchor="middle" x="281.847" y="-632.76" font-family="Times,serif" font-size="14.00">Tests Pass</text>
</g>
<!-- UserContactTest -->
<g id="node9" class="node"><title>UserContactTest</title>
<g id="a_node9"><a xlink:href="docs/UserTestFollowup.md" xlink:title="Open Issue\n on Github">
<ellipse fill="none" stroke="black" cx="417.347" cy="-493.35" rx="54.3945" ry="26.7407"/>
<text text-anchor="middle" x="417.347" y="-497.15" font-family="Times,serif" font-size="14.00">Open Issue</text>
<text text-anchor="middle" x="417.347" y="-482.15" font-family="Times,serif" font-size="14.00"> on Github</text>
</a>
</g>
</g>
<!-- FailTest&#45;&gt;UserContactTest -->
<g id="edge12" class="edge"><title>FailTest&#45;&gt;UserContactTest</title>
<path fill="none" stroke="black" d="M383.247,-566.399C388.256,-555.814 394.922,-541.73 401.031,-528.823"/>
<polygon fill="black" stroke="black" points="404.235,-530.236 405.349,-519.7 397.907,-527.241 404.235,-530.236"/>
</g>
<!-- UserContactTest&#45;&gt;PullRequest -->
<g id="edge13" class="edge"><title>UserContactTest&#45;&gt;PullRequest</title>
<path fill="none" stroke="black" d="M429.873,-519.701C437.328,-537.1 445.347,-560.958 445.347,-583.09 445.347,-878.831 445.347,-878.831 445.347,-878.831 445.347,-931.236 381.29,-949.573 329.182,-955.819"/>
<polygon fill="black" stroke="black" points="328.513,-952.37 318.942,-956.913 329.257,-959.33 328.513,-952.37"/>
</g>
<!-- StageToTesting -->
<g id="node11" class="node"><title>StageToTesting</title>
<ellipse fill="none" stroke="black" cx="251.347" cy="-493.35" rx="65.5227" ry="26.7407"/>
<text text-anchor="middle" x="251.347" y="-497.15" font-family="Times,serif" font-size="14.00">Stage to</text>
<text text-anchor="middle" x="251.347" y="-482.15" font-family="Times,serif" font-size="14.00"> Testing Repo</text>
</g>
<!-- InvokeArtifact&#45;&gt;StageToTesting -->
<g id="edge14" class="edge"><title>InvokeArtifact&#45;&gt;StageToTesting</title>
<path fill="none" stroke="black" d="M250.54,-565.98C250.653,-555.907 250.801,-542.774 250.939,-530.508"/>
<polygon fill="black" stroke="black" points="254.439,-530.534 251.052,-520.495 247.44,-530.455 254.439,-530.534"/>
</g>
<!-- FieldTests -->
<g id="node12" class="node"><title>FieldTests</title>
<ellipse fill="none" stroke="black" cx="251.347" cy="-382.48" rx="50.0912" ry="18"/>
<text text-anchor="middle" x="251.347" y="-378.78" font-family="Times,serif" font-size="14.00">Field Tests</text>
</g>
<!-- StageToTesting&#45;&gt;FieldTests -->
<g id="edge15" class="edge"><title>StageToTesting&#45;&gt;FieldTests</title>
<path fill="none" stroke="black" d="M251.347,-466.273C251.347,-449.554 251.347,-427.882 251.347,-410.906"/>
<polygon fill="black" stroke="black" points="254.847,-410.527 251.347,-400.527 247.847,-410.527 254.847,-410.527"/>
<text text-anchor="middle" x="287.347" y="-437.28" font-family="Times,serif" font-size="14.00">Update Repo</text>
<text text-anchor="middle" x="287.347" y="-422.28" font-family="Times,serif" font-size="14.00"> Version</text>
</g>
<!-- RepoLock -->
<g id="node13" class="node"><title>RepoLock</title>
<ellipse fill="none" stroke="black" cx="299.347" cy="-286.61" rx="69.0935" ry="26.7407"/>
<text text-anchor="middle" x="299.347" y="-290.41" font-family="Times,serif" font-size="14.00">Lock CVMFS </text>
<text text-anchor="middle" x="299.347" y="-275.41" font-family="Times,serif" font-size="14.00"> repo</text>
</g>
<!-- FieldTests&#45;&gt;RepoLock -->
<g id="edge16" class="edge"><title>FieldTests&#45;&gt;RepoLock</title>
<path fill="none" stroke="black" d="M264.436,-364.941C268.564,-359.282 272.933,-352.784 276.347,-346.48 280.359,-339.072 284.033,-330.812 287.212,-322.877"/>
<polygon fill="black" stroke="black" points="290.518,-324.03 290.832,-313.439 283.983,-321.522 290.518,-324.03"/>
<text text-anchor="middle" x="327.347" y="-335.28" font-family="Times,serif" font-size="14.00">Field Tests Pass</text>
</g>
<!-- FollowUpSites -->
<g id="node14" class="node"><title>FollowUpSites</title>
<ellipse fill="none" stroke="black" cx="157.347" cy="-286.61" rx="54.3945" ry="26.7407"/>
<text text-anchor="middle" x="157.347" y="-290.41" font-family="Times,serif" font-size="14.00">Open Issue</text>
<text text-anchor="middle" x="157.347" y="-275.41" font-family="Times,serif" font-size="14.00"> on Github</text>
</g>
<!-- FieldTests&#45;&gt;FollowUpSites -->
<g id="edge17" class="edge"><title>FieldTests&#45;&gt;FollowUpSites</title>
<path fill="none" stroke="black" d="M219.173,-368.616C208.1,-363.039 196.258,-355.655 187.347,-346.48 180.656,-339.591 175.133,-330.912 170.729,-322.351"/>
<polygon fill="black" stroke="black" points="173.835,-320.732 166.388,-313.197 167.511,-323.732 173.835,-320.732"/>
<text text-anchor="middle" x="229.847" y="-335.28" font-family="Times,serif" font-size="14.00">Field Tests Fail</text>
</g>
<!-- DeployArtifact -->
<g id="node17" class="node"><title>DeployArtifact</title>
<ellipse fill="none" stroke="black" cx="299.347" cy="-204.74" rx="63.8893" ry="18"/>
<text text-anchor="middle" x="299.347" y="-201.04" font-family="Times,serif" font-size="14.00">DeployArtifact</text>
</g>
<!-- RepoLock&#45;&gt;DeployArtifact -->
<g id="edge19" class="edge"><title>RepoLock&#45;&gt;DeployArtifact</title>
<path fill="none" stroke="black" d="M299.347,-259.458C299.347,-251.013 299.347,-241.63 299.347,-233.1"/>
<polygon fill="black" stroke="black" points="302.847,-232.886 299.347,-222.887 295.847,-232.887 302.847,-232.886"/>
</g>
<!-- FollowUpSites&#45;&gt;InvokeTest -->
<g id="edge18" class="edge"><title>FollowUpSites&#45;&gt;InvokeTest</title>
<path fill="none" stroke="black" d="M157.347,-313.508C157.347,-332.359 157.347,-358.502 157.347,-381.48 157.347,-585.09 157.347,-585.09 157.347,-585.09 157.347,-618.883 188.123,-644.39 215.005,-660.223"/>
<polygon fill="black" stroke="black" points="213.487,-663.385 223.921,-665.22 216.909,-657.278 213.487,-663.385"/>
</g>
<!-- RepoUpdate -->
<g id="node15" class="node"><title>RepoUpdate</title>
<ellipse fill="none" stroke="black" cx="299.347" cy="-122.87" rx="62.4516" ry="26.7407"/>
<text text-anchor="middle" x="299.347" y="-126.67" font-family="Times,serif" font-size="14.00">Update Repo</text>
<text text-anchor="middle" x="299.347" y="-111.67" font-family="Times,serif" font-size="14.00"> Version</text>
</g>
<!-- SiteTag -->
<g id="node16" class="node"><title>SiteTag</title>
<ellipse fill="none" stroke="black" cx="299.347" cy="-41" rx="42.4939" ry="18"/>
<text text-anchor="middle" x="299.347" y="-37.3" font-family="Times,serif" font-size="14.00">Tag sites</text>
</g>
<!-- RepoUpdate&#45;&gt;SiteTag -->
<g id="edge21" class="edge"><title>RepoUpdate&#45;&gt;SiteTag</title>
<path fill="none" stroke="black" d="M299.347,-95.7176C299.347,-87.2726 299.347,-77.8903 299.347,-69.3604"/>
<polygon fill="black" stroke="black" points="302.847,-69.1464 299.347,-59.1464 295.847,-69.1464 302.847,-69.1464"/>
</g>
<!-- DeployArtifact&#45;&gt;RepoUpdate -->
<g id="edge20" class="edge"><title>DeployArtifact&#45;&gt;RepoUpdate</title>
<path fill="none" stroke="black" d="M299.347,-186.41C299.347,-178.676 299.347,-169.256 299.347,-160.098"/>
<polygon fill="black" stroke="black" points="302.847,-159.974 299.347,-149.974 295.847,-159.974 302.847,-159.974"/>
</g>
</g>
</svg>
